{"title":"Se7en (1995) [Eng-Hindi] 1080p","uid":12861271,"size":1282390775,"categoryP":"video","categoryS":"movies","magnet":"?xt=urn:btih:7402da327aeb9380a6c0af833678e74a4cc21f00&amp;dn=Se7en+%281995%29+%5BEng-Hindi%5D+1080p&amp;tr=udp%3A%2F%2Ftracker.leechers-paradise.org%3A6969&amp;tr=udp%3A%2F%2Fzer0day.ch%3A1337&amp;tr=udp%3A%2F%2Fopen.demonii.com%3A1337&amp;tr=udp%3A%2F%2Ftracker.coppersurfer.tk%3A6969&amp;tr=udp%3A%2F%2Fexodus.desync.com%3A6969","seeders":0,"leechers":0,"uploader":"SahibDM","files":2,"time":1448741269,"description":"COVER:-\r\n \nhttp://fs72.trilulilu.ro/imgs/bulldogmini9984/seven-se7en-1995-poster_90e65a5d1b93a9.jpg?size=original\r\n\r\nINFORMATION:-\r\n\r\nWhen retiring police Detective William Somerset (Morgan Freeman) tackles a final case with the aid of newly transferred David Mills (Brad Pitt), they discover a number of elaborate and grizzly murders. They soon realize they are dealing with a serial killer (Kevin Spacey) who is targeting people he thinks represent one of the seven deadly sins. Somerset also befriends Mills' wife, Tracy (Gwyneth Paltrow), who is pregnant and afraid to raise her child in the crime-riddled city.\r\n\r\nVideo Info\r\nID: 1\r\nFormat: AVC\r\nFormat/Info: Advanced Video Codec\r\nFormat profile:   \r\nFormat settings, CABAC: Yes\r\nFormat settings, ReFrames: 3 frames\r\nCodec ID: V_MPEG4/ISO/AVC\r\nNominal Bitrate: 1029 Kbps /25.0 Mbps(Max)\r\nWidth: 1920 pixels\r\nHeight: 800 pixels\r\nDisplay aspect ratio: 2.40:1\r\nFrame rate: 23.976 fps\r\nColor space: YUV\r\nChroma subsampling: 4:2:0\r\nBit depth: 8 bits\r\nScan type: Progressive\r\nWriting library: x264 core 100 r1659 57b2e56\r\n\r\nAudio #1\r\nID: 2\r\nFormat : AAC\r\nFormat/Info: Advanced Audio Codec\r\nFormat profile: HE-AAC / LC\r\nCodec ID: 40\r\nDuration : h 6mn\r\nBit rate mode: Variable\r\nBit rate: 91.9 Kbps\r\nMaximum bit rate: 109 Kbps\r\nChannel(s): 2 channels\r\nChannel positions: Front: L R\r\nSampling rate: 48.0 KHz / 24.0 KHz\r\nCompression mode: Lossy\r\nStream size: 83.3 MiB (7%)\r\nLanguage: English\r\n\r\nAudio #2\r\nID : 3\r\nFormat: AC-3\r\nFormat/Info: Audio Coding 3\r\nMode extension: CM (complete main)\r\nCodec ID: ac-3\r\nDuration: 2h 6mn\r\nBit rate mode: Constant\r\nBit rate: 224 Kbps\r\nChannel(s): 2 channels\r\nChannel positions: Front: L R\r\nSampling rate: 44.1 KHz\r\nBit depth: 16 bits\r\nCompression mode : ossy\r\nStream size: 203 MiB (17%)\r\nLanguage: Hindi\r\n\r\nSCREENSHOTS:-\r\n \nhttp://i1093.photobucket.com/albums/i437/SahibDM/sassa.jpg\r\n\r\nTHANK YOU!","torrent":{"xt":"urn:btih:7402da327aeb9380a6c0af833678e74a4cc21f00","amp;dn":"Se7en+%281995%29+%5BEng-Hindi%5D+1080p","amp;tr":["udp%3A%2F%2Ftracker.leechers-paradise.org%3A6969","udp%3A%2F%2Fzer0day.ch%3A1337","udp%3A%2F%2Fopen.demonii.com%3A1337","udp%3A%2F%2Ftracker.coppersurfer.tk%3A6969","udp%3A%2F%2Fexodus.desync.com%3A6969"],"infoHash":"7402da327aeb9380a6c0af833678e74a4cc21f00","infoHashBuffer":{"type":"Buffer","data":[116,2,218,50,122,235,147,128,166,192,175,131,54,120,231,74,76,194,31,0]},"announce":[],"urlList":[]}}